<?xml version="1.0" encoding="UTF-8"?>
<!DOCTYPE svg PUBLIC "-//W3C//DTD SVG 1.1//EN" "http://www.w3.org/Graphics/SVG/1.1/DTD/svg11.dtd">
<svg xmlns="http://www.w3.org/2000/svg" version="1.1" width="300px" height="100px" style="shape-rendering:geometricPrecision; text-rendering:geometricPrecision; image-rendering:optimizeQuality; fill-rule:evenodd; clip-rule:evenodd" xmlns:xlink="http://www.w3.org/1999/xlink">
<g><path style="opacity:1" fill="#4f1a1d" d="M 13.5,29.5 C 21.1739,29.3336 28.8406,29.5003 36.5,30C 36.9574,30.414 37.2907,30.914 37.5,31.5C 29.8622,32.4975 22.1955,32.8308 14.5,32.5C 14.4723,40.863 12.8056,48.863 9.5,56.5C 8.04464,57.7445 6.7113,57.5778 5.5,56C 7.35427,53.4571 8.52094,50.6237 9,47.5C 9.5307,41.8291 10.0307,36.1625 10.5,30.5C 11.791,30.7373 12.791,30.404 13.5,29.5 Z"/></g>
<g><path style="opacity:1" fill="#e55a3b" d="M 158.5,29.5 C 160.121,29.7869 161.121,30.7869 161.5,32.5C 158.145,33.8113 157.145,32.8113 158.5,29.5 Z"/></g>
<g><path style="opacity:1" fill="#4c171a" d="M 52.5,31.5 C 53.4959,31.4142 54.3292,31.7476 55,32.5C 55.4935,34.1341 55.6602,35.8008 55.5,37.5C 58.8067,36.9492 62.1401,36.6159 65.5,36.5C 65.719,37.675 65.3857,38.675 64.5,39.5C 61.4973,40.0851 58.4973,40.7518 55.5,41.5C 55.2907,42.086 54.9574,42.586 54.5,43C 58.3181,46.4075 62.3181,49.5741 66.5,52.5C 62.1665,53.105 58.3331,51.7717 55,48.5C 54.9288,52.6875 54.2622,56.6875 53,60.5C 51.3968,59.1142 50.5634,57.2809 50.5,55C 50.8958,52.4598 51.0625,49.9598 51,47.5C 48.808,51.9133 45.4747,53.9133 41,53.5C 40.8333,53.1667 40.6667,52.8333 40.5,52.5C 44.4072,50.0453 47.4072,46.712 49.5,42.5C 46.9135,41.52 44.2469,41.1866 41.5,41.5C 41.5,40.5 41.5,39.5 41.5,38.5C 44.8806,38.5405 48.2139,38.2071 51.5,37.5C 51.5172,35.4352 51.8505,33.4352 52.5,31.5 Z"/></g>
<g><path style="opacity:1" fill="#4e191c" d="M 112.5,31.5 C 113.5,31.5 114.5,31.5 115.5,31.5C 115.5,32.8333 115.5,34.1667 115.5,35.5C 118.898,35.1796 122.232,35.513 125.5,36.5C 125.291,37.086 124.957,37.586 124.5,38C 120.83,38.5482 117.163,39.0482 113.5,39.5C 113.714,41.1439 113.38,42.6439 112.5,44C 121.749,41.6958 125.583,45.1958 124,54.5C 122.285,57.3974 119.785,58.7307 116.5,58.5C 117.195,56.0219 118.695,54.0219 121,52.5C 122.165,49.1861 120.998,47.1861 117.5,46.5C 113.855,48.1802 110.521,50.1802 107.5,52.5C 107.958,48.4616 108.624,44.4616 109.5,40.5C 107.5,40.5 105.5,40.5 103.5,40.5C 103.5,39.5 103.5,38.5 103.5,37.5C 106.127,36.9084 108.794,36.5751 111.5,36.5C 111.629,34.7839 111.962,33.1172 112.5,31.5 Z"/></g>
<g><path style="opacity:1" fill="#db5931" d="M 152.5,31.5 C 154.532,32.0478 155.532,33.3812 155.5,35.5C 152.014,35.7047 151.014,34.3714 152.5,31.5 Z"/></g>
<g><path style="opacity:1" fill="#471015" d="M 18.5,33.5 C 24.1956,33.447 29.8623,33.7803 35.5,34.5C 35.57,42.1014 31.9033,45.4347 24.5,44.5C 16.9722,45.5048 13.9722,42.1714 15.5,34.5C 16.791,34.7373 17.791,34.404 18.5,33.5 Z"/></g>
<g><path style="opacity:1" fill="#562325" d="M 141.5,33.5 C 146.753,33.628 151.086,35.628 154.5,39.5C 153.833,39.8333 153.167,40.1667 152.5,40.5C 148.096,38.228 143.429,36.5613 138.5,35.5C 139.602,34.8243 140.602,34.1577 141.5,33.5 Z"/></g>
<g><path style="opacity:1" fill="#4f1b1e" d="M 273.5,34.5 C 275.103,34.3118 276.437,34.8118 277.5,36C 275.086,40.8295 272.42,45.4962 269.5,50C 272.515,50.2009 275.515,49.8676 278.5,49C 277.253,47.5064 277.253,46.0064 278.5,44.5C 281.132,48.7341 284.466,52.4008 288.5,55.5C 288.167,56.5 287.5,57.1667 286.5,57.5C 283.758,55.5728 280.925,53.9061 278,52.5C 273.531,53.4394 269.031,54.106 264.5,54.5C 264.343,53.1266 264.51,51.7932 265,50.5C 268.623,45.5884 271.456,40.255 273.5,34.5 Z"/></g>
<g><path style="opacity:1" fill="#501c1e" d="M 188.5,35.5 C 189.627,36.1217 190.627,36.955 191.5,38C 189.881,43.5719 187.214,48.5719 183.5,53C 181.557,54.5555 179.39,55.7221 177,56.5C 175.941,56.3699 175.108,55.8699 174.5,55C 181.026,51.7774 185.026,46.6108 186.5,39.5C 182.132,39.3701 177.798,39.7035 173.5,40.5C 171.681,40.6578 170.348,39.9911 169.5,38.5C 175.911,37.1456 182.245,36.1456 188.5,35.5 Z"/></g>
<g><path style="opacity:1" fill="#774e4f" d="M 20.5,36.5 C 23.5,37.8333 26.5,37.8333 29.5,36.5C 31.3786,36.3932 31.7119,36.8932 30.5,38C 26.4589,38.8265 22.4589,38.6599 18.5,37.5C 18.9569,36.7025 19.6236,36.3691 20.5,36.5 Z"/></g>
<g><path style="opacity:1" fill="#4c171b" d="M 73.5,36.5 C 75.1847,40.7891 76.3514,45.4557 77,50.5C 77.3333,50.8333 77.6667,51.1667 78,51.5C 79.0414,49.4148 80.5414,47.7481 82.5,46.5C 83.3081,46.8076 83.9747,47.3076 84.5,48C 82.8386,50.8525 80.8386,53.3525 78.5,55.5C 75.2588,54.3844 73.4254,52.0511 73,48.5C 72.2375,44.4126 72.4042,40.4126 73.5,36.5 Z"/></g>
<g><path style="opacity:1" fill="#592728" d="M 91.5,36.5 C 93.2462,37.2495 94.2462,38.5828 94.5,40.5C 95.3619,44.4526 95.6952,48.4526 95.5,52.5C 94.5,52.5 93.5,52.5 92.5,52.5C 92.0513,47.7928 91.3847,43.1262 90.5,38.5C 90.8627,37.8165 91.1961,37.1499 91.5,36.5 Z"/></g>
<g><path style="opacity:1" fill="#542123" d="M 207.5,40.5 C 210.833,40.5 214.167,40.5 217.5,40.5C 214.791,45.3815 212.291,50.3815 210,55.5C 208.981,56.6872 207.814,57.6872 206.5,58.5C 205.5,58.1667 204.833,57.5 204.5,56.5C 207.574,53.3243 208.241,49.6577 206.5,45.5C 208.565,45.7384 210.565,45.2384 212.5,44C 208.433,43.9967 204.433,43.8301 200.5,43.5C 202.621,41.9819 204.954,40.9819 207.5,40.5 Z"/></g>
<g><path style="opacity:1" fill="#562325" d="M 247.5,42.5 C 250.157,42.162 252.49,42.8287 254.5,44.5C 249.195,45.3866 243.862,46.0532 238.5,46.5C 236.192,46.6353 234.192,45.9686 232.5,44.5C 237.651,43.8332 242.651,43.1665 247.5,42.5 Z"/></g>
<g><path style="opacity:1" fill="#481217" d="M 16.5,45.5 C 21.5,45.5 26.5,45.5 31.5,45.5C 31.67,46.8221 31.3366,47.9887 30.5,49C 28.7536,49.4709 27.087,50.1376 25.5,51C 28.5744,51.9581 31.5744,53.1248 34.5,54.5C 31.8333,55.1667 29.1667,55.8333 26.5,56.5C 24.7041,59.6999 22.3707,60.1999 19.5,58C 20.6721,57.5814 21.6721,56.9147 22.5,56C 14.1868,54.773 13.8534,53.4396 21.5,52C 20.1667,51 20.1667,50 21.5,49C 19.8333,48.6667 18.1667,48.3333 16.5,48C 15.4019,47.2303 15.4019,46.397 16.5,45.5 Z"/></g>
<g><path style="opacity:1" fill="#4e1a1d" d="M 137.5,48.5 C 139.487,49.1642 141.154,50.3308 142.5,52C 146.203,52.5787 149.869,52.412 153.5,51.5C 153.5,52.5 153.5,53.5 153.5,54.5C 149.537,55.44 145.537,55.6067 141.5,55C 138.04,53.7834 136.707,51.6168 137.5,48.5 Z"/></g>
<g><path style="opacity:1" fill="#f1685b" d="M 131.5,72.5 C 130.227,71.9232 130.227,71.2565 131.5,70.5C 132.463,70.9698 132.463,71.6365 131.5,72.5 Z"/></g>
<g><path style="opacity:1" fill="#f26a5c" d="M 136.5,73.5 C 135.227,72.9232 135.227,72.2565 136.5,71.5C 137.463,71.9698 137.463,72.6365 136.5,73.5 Z"/></g>
<g><path style="opacity:1" fill="#f37467" d="M 154.5,70.5 C 156.935,71.1298 157.602,72.4631 156.5,74.5C 154.889,73.6798 154.222,72.3464 154.5,70.5 Z"/></g>
<g><path style="opacity:1" fill="#f27c71" d="M 160.5,71.5 C 162.465,71.9483 162.798,72.9483 161.5,74.5C 159.481,73.8671 159.147,72.8671 160.5,71.5 Z"/></g>
<g><path style="opacity:1" fill="#f06456" d="M 169.5,71.5 C 170.833,72.1667 170.833,72.1667 169.5,71.5 Z"/></g>
<g><path style="opacity:1" fill="#f26858" d="M 181.5,70.5 C 184.598,70.4125 184.932,70.9125 182.5,72C 183.654,72.9138 183.487,73.7471 182,74.5C 181.51,73.2068 181.343,71.8734 181.5,70.5 Z"/></g>
<g><path style="opacity:1" fill="#f06052" d="M 99.5,73.5 C 100.05,69.6611 101.05,69.6611 102.5,73.5C 101.767,74.087 100.767,74.087 99.5,73.5 Z"/></g>
<g><path style="opacity:1" fill="#f27366" d="M 110.5,73.5 C 109.475,73.1034 109.308,72.4368 110,71.5C 110.464,72.0944 110.631,72.7611 110.5,73.5 Z"/></g>
<g><path style="opacity:1" fill="#f27064" d="M 118.5,71.5 C 119.5,71.5 120.5,71.5 121.5,71.5C 121.657,72.8734 121.49,74.2068 121,75.5C 119.294,74.6921 118.461,73.3588 118.5,71.5 Z"/></g>
<g><path style="opacity:1" fill="#ef5243" d="M 123.5,71.5 C 124.573,72.2506 124.74,73.2506 124,74.5C 123.517,73.552 123.351,72.552 123.5,71.5 Z"/></g>
<g><path style="opacity:1" fill="#f4857b" d="M 139.5,71.5 C 141.646,71.6964 141.812,72.6964 140,74.5C 139.517,73.552 139.351,72.552 139.5,71.5 Z"/></g>
<g><path style="opacity:1" fill="#f27063" d="M 148.5,71.5 C 149.473,72.7914 150.473,72.7914 151.5,71.5C 152.386,72.325 152.719,73.325 152.5,74.5C 150.027,74.9118 148.694,73.9118 148.5,71.5 Z"/></g>
<g><path style="opacity:1" fill="#f4857b" d="M 164.5,71.5 C 166.646,71.6964 166.812,72.6964 165,74.5C 164.517,73.552 164.351,72.552 164.5,71.5 Z"/></g>
<g><path style="opacity:1" fill="#f05d4d" d="M 191.5,71.5 C 193.646,71.6964 193.812,72.6964 192,74.5C 191.517,73.552 191.351,72.552 191.5,71.5 Z"/></g>
<g><path style="opacity:1" fill="#f16557" d="M 195.5,71.5 C 197.167,71.5 198.833,71.5 200.5,71.5C 200.587,74.5983 200.087,74.9316 199,72.5C 198.333,75.1667 197.667,75.1667 197,72.5C 195.913,74.9316 195.413,74.5983 195.5,71.5 Z"/></g>
<g><path style="opacity:1" fill="#f27a6d" d="M 99.5,73.5 C 98.8333,74.1667 98.8333,74.1667 99.5,73.5 Z"/></g>
<g><path style="opacity:1" fill="#f27568" d="M 105.5,70.5 C 106.598,71.6009 106.765,72.9343 106,74.5C 104.666,73.1221 104.499,71.7887 105.5,70.5 Z"/></g>
<g><path style="opacity:1" fill="#f17366" d="M 110.5,73.5 C 111.833,74.1667 111.833,74.1667 110.5,73.5 Z"/></g>
<g><path style="opacity:1" fill="#f4796c" d="M 113.5,71.5 C 117.06,73.2825 117.06,74.2825 113.5,74.5C 113.5,73.5 113.5,72.5 113.5,71.5 Z"/></g>
<g><path style="opacity:1" fill="#f48d83" d="M 131.5,72.5 C 133.337,72.6395 133.67,73.3061 132.5,74.5C 131.702,74.0431 131.369,73.3764 131.5,72.5 Z"/></g>
<g><path style="opacity:1" fill="#f38378" d="M 136.5,73.5 C 137.833,74.1667 137.833,74.1667 136.5,73.5 Z"/></g>
<g><path style="opacity:1" fill="#f26f61" d="M 144.5,71.5 C 146.048,71.8212 146.715,72.8212 146.5,74.5C 145.448,74.6495 144.448,74.4828 143.5,74C 144.252,73.3292 144.586,72.4959 144.5,71.5 Z"/></g>
<g><path style="opacity:1" fill="#f5a097" d="M 168.5,73.5 C 169.833,74.1667 169.833,74.1667 168.5,73.5 Z"/></g>
<g><path style="opacity:1" fill="#f16e62" d="M 174.5,71.5 C 175.465,72.7211 175.298,74.0544 174,75.5C 173.421,74.0715 173.588,72.7382 174.5,71.5 Z"/></g>
<g><path style="opacity:1" fill="#f26d60" d="M 186.5,71.5 C 190.31,72.7542 190.31,73.7542 186.5,74.5C 186.5,73.5 186.5,72.5 186.5,71.5 Z"/></g>
</svg>
